<svg width="36" height="22" viewBox="0 0 36 22" fill="none" xmlns="http://www.w3.org/2000/svg">
<path d="M10.148 7.8315C10.1075 9.10554 10.7442 9.66972 10.76 10.028C10.7525 10.101 10.7277 10.171 10.6875 10.2324C10.6474 10.2937 10.5932 10.3446 10.5294 10.3807L9.80939 10.8847C9.71621 10.95 9.60638 10.9875 9.49271 10.9927C9.46852 10.9916 9.03203 11.0956 8.34073 9.55216C7.91896 10.0786 7.38233 10.5016 6.77191 10.7887C6.16149 11.0759 5.49346 11.2195 4.81897 11.2087C3.90324 11.2588 1.42153 10.689 1.54921 8.04694C1.45978 5.89372 3.46506 4.55612 5.53896 4.66918C5.93833 4.6703 6.75394 4.68999 8.18211 5.02186V4.14325C8.33342 2.6549 7.35524 1.50011 5.66158 1.67335C5.52659 1.67392 4.57035 1.64523 3.08313 2.24203C2.66913 2.43215 2.61626 2.40065 2.47845 2.40065C2.06164 2.40065 2.2332 1.19242 2.31308 1.03943C2.60613 0.679433 4.33017 0.00725694 6.02214 0.0168193C7.15345 -0.0832325 8.27869 0.265918 9.15465 0.988803C9.51073 1.38709 9.78238 1.85342 9.95321 2.35962C10.124 2.86583 10.1905 3.4014 10.1486 3.934L10.148 7.8315ZM5.28696 9.65341C7.11112 9.62697 7.88342 8.53012 8.05948 7.9395C8.19785 7.3742 8.17479 7.01645 8.17479 6.39828C7.63086 6.26778 6.84788 6.12547 5.94958 6.12434C5.0974 6.06022 3.54099 6.44103 3.60174 7.93894C3.53199 8.88336 4.22723 9.70516 5.28696 9.65341ZM14.9011 10.95C14.4589 10.9905 14.2531 10.6766 14.1878 10.3666L11.3866 1.10524C11.3321 0.948866 11.2961 0.787431 11.2786 0.622622C11.2683 0.554674 11.2853 0.485404 11.3261 0.430032C11.3668 0.374659 11.4278 0.337714 11.4957 0.327314C11.5092 0.325064 11.3759 0.327314 12.7473 0.327314C13.2411 0.277815 13.402 0.666496 13.4532 0.910617L15.4624 8.83217L17.3276 0.910617C17.3575 0.729495 17.493 0.28794 18.0476 0.334627H19.0129C19.1349 0.324502 19.6378 0.306502 19.7261 0.917929L21.6059 8.94073L23.6798 0.917929C23.7068 0.795306 23.8328 0.278378 24.3931 0.334627H25.5023C25.5501 0.327314 25.8482 0.289065 25.7976 0.817243C25.7734 0.921304 25.9894 0.217628 22.8305 10.374C22.7658 10.6839 22.5594 10.9978 22.1173 10.9573H21.066C20.4506 11.0219 20.3623 10.4139 20.3527 10.3526L18.4875 2.63915L16.6437 10.3447C16.6347 10.406 16.5463 11.0141 15.9304 10.9494L14.9011 10.95ZM30.2841 11.2666C29.9533 11.2672 28.3761 11.2498 27.0576 10.5753C26.9263 10.5197 26.8144 10.4264 26.7362 10.3071C26.658 10.1878 26.617 10.048 26.6183 9.90541V9.30073C26.6183 8.82542 26.967 8.91261 27.115 8.96942C27.6797 9.19779 28.042 9.37104 28.7355 9.50941C30.797 9.93297 31.7038 9.38004 31.926 9.25742C32.6656 8.81811 32.7241 7.81294 32.2213 7.29151C31.6318 6.79708 31.3505 6.77852 29.2328 6.11028C28.9718 6.03772 26.7747 5.34473 26.7696 3.16508C26.7353 1.57661 28.1786 0.00500679 30.68 0.0179441C31.3927 0.0173816 33.2917 0.250253 33.8058 0.896555C33.8817 1.01412 33.9194 1.15249 33.9138 1.29255V1.86123C33.9138 2.11097 33.8227 2.23585 33.6399 2.23585C33.2062 2.18747 32.4367 1.60754 30.8747 1.63117C30.4871 1.61092 28.6309 1.68235 28.7141 3.03571C28.69 4.10219 30.2109 4.50212 30.3847 4.54824C32.4356 5.1653 33.1213 5.26767 33.9352 6.21209C34.8993 7.46363 34.3795 8.92892 34.1799 9.33054C33.1066 11.4393 30.3313 11.2678 30.2841 11.2666ZM32.5453 17.1649C28.6061 20.0741 22.8879 21.6227 18.0054 21.6227C11.4176 21.6661 5.05173 19.2437 0.159299 14.8317C-0.208008 14.5004 0.115987 14.0465 0.562604 14.299C5.98977 17.4035 12.1345 19.0347 18.3868 19.0307C23.0559 19.0057 27.674 18.0585 31.976 16.2436C32.6386 15.9623 33.2006 16.6823 32.5453 17.1649ZM34.1872 15.2924C33.6832 14.6444 30.8527 14.9898 29.5854 15.1411C29.2035 15.1844 29.1388 14.8531 29.4848 14.6084C31.7387 13.0239 35.4404 13.4778 35.8656 14.0105C36.2903 14.5431 35.7503 18.2522 33.6404 20.0241C33.3164 20.298 33.0065 20.1534 33.1505 19.7934C33.6252 18.5981 34.6912 15.9409 34.1872 15.2924Z" fill="#0081B4"/>
</svg>
