<svg width="34" height="34" viewBox="0 0 24 34" fill="none" xmlns="http://www.w3.org/2000/svg">
<path d="M15.7594 12.0044L12.4326 15.0996L9.34574 8.87288L10.9432 5.29163C11.3586 4.56458 12.0067 4.57289 12.4118 5.29163L15.7594 12.0044Z" fill="#0081B4"/>
<path d="M9.34574 8.87288L12.4326 15.0996L0 26.6649L9.34574 8.87288Z" fill="#0081B4"/>
<path d="M19.3978 7.27337C19.9919 6.70211 20.6067 6.89738 20.7636 7.70648L24 26.5112L13.2729 32.9508C12.8989 33.1585 11.9018 33.2478 11.9018 33.2478C11.9018 33.2478 10.9941 33.1398 10.6482 32.9362L0 26.6649L19.3978 7.27337Z" fill="#0081B4" fill-opacity="0.8"/>
<path d="M9.34574 8.87288L0.00103857 26.6649L4.16289 0.662382C4.31661 -0.147762 4.77777 -0.225661 5.18908 0.488928L9.34574 8.87288Z" fill="#0081B4"/>
</svg>
