<svg width="36" height="32" viewBox="0 0 36 32" fill="none" xmlns="http://www.w3.org/2000/svg">
<path d="M29.4047 10.2085C29.025 10.0819 28.6453 9.9624 28.2656 9.8499C28.3289 9.58975 28.3852 9.32959 28.4414 9.06943C29.3062 4.87881 28.7367 1.51084 26.8172 0.399902C24.968 -0.661817 21.9516 0.442089 18.9 3.0999C18.5977 3.36006 18.3023 3.63428 18.0211 3.9085C17.8312 3.72568 17.6344 3.54287 17.4375 3.36709C14.2383 0.526465 11.032 -0.668848 9.1125 0.449121C7.27031 1.51787 6.72187 4.68896 7.49531 8.65459C7.57266 9.04834 7.65703 9.43506 7.75547 9.82881C7.30547 9.95537 6.8625 10.096 6.44766 10.2437C2.69297 11.5444 0 13.5976 0 15.721C0 17.9147 2.86875 20.1155 6.77109 21.4515C7.0875 21.5569 7.40391 21.6624 7.72734 21.7538C7.62188 22.1757 7.53047 22.5905 7.44609 23.0194C6.70781 26.9218 7.28438 30.0155 9.12656 31.0772C11.025 32.1741 14.2172 31.0491 17.325 28.328C17.5711 28.1101 17.8172 27.8851 18.0633 27.646C18.3727 27.9483 18.6961 28.2366 19.0195 28.5179C22.0289 31.1054 25.0031 32.153 26.8383 31.0913C28.7367 29.9944 29.3555 26.6687 28.5539 22.6187C28.4906 22.3093 28.4203 21.9929 28.343 21.6694C28.568 21.6062 28.7859 21.5358 29.0039 21.4655C33.0609 20.1226 36 17.9499 36 15.721C36 13.5905 33.2297 11.5233 29.4047 10.2085ZM19.8914 4.23896C22.507 1.96084 24.9469 1.06787 26.0578 1.70771C27.2461 2.38975 27.7031 5.146 26.9578 8.76709C26.9086 9.00615 26.8594 9.23818 26.7961 9.47021C25.2352 9.11865 23.6531 8.86553 22.0641 8.7249C21.15 7.41709 20.1516 6.16553 19.0688 4.99131C19.343 4.73115 19.6102 4.48506 19.8914 4.23896ZM11.7562 19.3702C12.1148 19.9819 12.4805 20.5937 12.8672 21.1913C11.7703 21.0718 10.6805 20.896 9.60469 20.664C9.91406 19.6515 10.3008 18.6038 10.7508 17.5351C11.0742 18.1538 11.4047 18.7655 11.7562 19.3702ZM9.62578 10.9116C10.6383 10.6866 11.7141 10.5038 12.832 10.3632C12.4594 10.9468 12.0938 11.5444 11.7492 12.1491C11.4047 12.7468 11.0672 13.3585 10.7508 13.9772C10.3078 12.9296 9.93516 11.903 9.62578 10.9116ZM11.5523 15.7562C12.0164 14.7858 12.5227 13.8366 13.057 12.9015C13.5914 11.9663 14.168 11.0593 14.7727 10.1663C15.8273 10.089 16.9031 10.0468 18 10.0468C19.0969 10.0468 20.1797 10.089 21.2273 10.1663C21.825 11.0522 22.3945 11.9593 22.9359 12.8874C23.4773 13.8155 23.9836 14.7647 24.4617 15.728C23.9906 16.6983 23.4844 17.6546 22.943 18.5968C22.4086 19.5319 21.8391 20.439 21.2414 21.339C20.1938 21.4163 19.1039 21.4515 18 21.4515C16.8961 21.4515 15.8273 21.4163 14.7937 21.353C14.182 20.4601 13.6055 19.546 13.0641 18.6108C12.5227 17.6757 12.0234 16.7265 11.5523 15.7562ZM24.2508 19.3562C24.6094 18.7374 24.9469 18.1116 25.2773 17.4788C25.7273 18.4983 26.1211 19.5319 26.4656 20.5937C25.3758 20.8397 24.2719 21.0296 23.1609 21.1562C23.5406 20.5655 23.8992 19.9608 24.2508 19.3562ZM25.2633 13.9772C24.9328 13.3585 24.5953 12.7397 24.2437 12.1351C23.8992 11.5374 23.5406 10.9468 23.168 10.3632C24.3 10.5038 25.3828 10.6937 26.3953 10.9257C26.0719 11.9663 25.6922 12.9788 25.2633 13.9772ZM18.0141 6.06709C18.7523 6.86865 19.4484 7.7124 20.0953 8.58428C18.7031 8.521 17.3039 8.521 15.9117 8.58428C16.6008 7.67725 17.3109 6.8335 18.0141 6.06709ZM9.85781 1.75693C11.0391 1.06787 13.6617 2.05225 16.425 4.49912C16.6008 4.65381 16.7766 4.82256 16.9594 4.99131C15.8695 6.16553 14.8641 7.41709 13.943 8.7249C12.3539 8.86553 10.7789 9.11162 9.21797 9.45615C9.12656 9.09756 9.04922 8.73193 8.97188 8.36631C8.31094 4.96318 8.74687 2.39678 9.85781 1.75693ZM8.13516 20.2913C7.83984 20.2069 7.55156 20.1155 7.26328 20.0171C5.76563 19.546 4.06406 18.8007 2.83359 17.8233C2.12344 17.3312 1.64531 16.5718 1.51172 15.721C1.51172 14.4343 3.73359 12.789 6.93984 11.671C7.34062 11.5304 7.74844 11.4038 8.15625 11.2843C8.63437 12.8101 9.21094 14.3077 9.87891 15.7562C9.20391 17.2257 8.62031 18.7444 8.13516 20.2913ZM16.3336 27.1819C15.1734 28.2437 13.8305 29.0874 12.368 29.664C11.5875 30.0366 10.6875 30.0718 9.88594 29.7554C8.76797 29.1085 8.30391 26.6265 8.93672 23.2866C9.01406 22.8929 9.09844 22.4991 9.19688 22.1124C10.7719 22.4499 12.3609 22.6819 13.9711 22.8015C14.8992 24.1163 15.9187 25.3749 17.0086 26.5562C16.7836 26.7741 16.5586 26.9851 16.3336 27.1819ZM18.0562 25.4733C17.3391 24.6999 16.6219 23.8421 15.9258 22.921C16.6008 22.9491 17.2969 22.9632 18 22.9632C18.7242 22.9632 19.4344 22.9491 20.1375 22.914C19.4906 23.8069 18.7945 24.6577 18.0562 25.4733ZM27.2461 27.5827C27.1828 28.4405 26.7609 29.2421 26.0859 29.7835C24.968 30.4304 22.5844 29.5866 20.0109 27.3788C19.7156 27.1257 19.4203 26.8515 19.118 26.5702C20.1938 25.3819 21.1852 24.1233 22.0852 22.8015C23.6953 22.6679 25.2984 22.4218 26.8805 22.0632C26.9508 22.3515 27.0141 22.6397 27.0703 22.921C27.4148 24.4397 27.4711 26.0218 27.2461 27.5827ZM28.5258 20.0241C28.3289 20.0874 28.132 20.1507 27.9281 20.2069C27.4359 18.6741 26.8313 17.1765 26.1352 15.721C26.8102 14.2866 27.3797 12.8101 27.8578 11.2983C28.2234 11.4038 28.575 11.5163 28.9125 11.6288C32.1891 12.7538 34.4883 14.4272 34.4883 15.7069C34.4883 17.0851 32.0344 18.864 28.5258 20.0241ZM18 18.9694C19.7789 18.9694 21.2203 17.528 21.2203 15.7491C21.2203 13.9702 19.7789 12.5288 18 12.5288C16.2211 12.5288 14.7797 13.9702 14.7797 15.7491C14.7797 17.528 16.2211 18.9694 18 18.9694Z" fill="#0081B4"/>
</svg>
