<svg width="36" height="36" viewBox="0 0 36 36" fill="none" xmlns="http://www.w3.org/2000/svg">
<path d="M35.9968 9.9721C35.9968 9.6097 35.9904 9.2489 35.9807 8.88569C35.9711 8.09359 35.9018 7.30334 35.7734 6.52164C35.6394 5.73907 35.3897 4.98078 35.0325 4.27169C34.3073 2.8476 33.1494 1.68998 31.7251 0.965068C31.0162 0.607397 30.2578 0.35768 29.4751 0.224191C28.6933 0.0951166 27.9027 0.0255435 27.1103 0.016071C26.7479 0.00642834 26.3871 0.00241066 26.0239 0H9.9729C9.6105 0 9.2497 0.00642834 8.8865 0.016071C8.68963 0.0216959 8.49195 0.0281243 8.29428 0.037767C7.7 0.0616317 7.10788 0.123903 6.52164 0.224191C5.93762 0.326105 5.36623 0.490436 4.8173 0.714359C4.63195 0.792036 4.44954 0.875605 4.27008 0.965068C3.74048 1.23613 3.24452 1.5684 2.79235 1.95505C2.64128 2.08442 2.49584 2.21861 2.35602 2.35682C1.79321 2.91819 1.32268 3.56499 0.961854 4.2733C0.604494 4.98231 0.354793 5.74062 0.220977 6.52325C0.093768 7.30449 0.0255411 8.09421 0.0168746 8.88569C0.00642843 9.2481 0.00241066 9.60889 0 9.9721V26.0295C0 26.3919 0.00642843 26.7527 0.0168746 27.1151C0.0264533 27.9072 0.0957554 28.6975 0.224191 29.4792C0.357832 30.2618 0.607542 31.0202 0.965068 31.7291C1.69073 33.1521 2.84746 34.3094 4.27008 35.0357C4.97915 35.3928 5.73746 35.6422 6.52003 35.7758C7.30192 35.9049 8.09248 35.9745 8.88489 35.9839C9.24649 35.9936 9.60809 35.9976 9.9713 36H26.0255C26.3879 36 26.7487 35.9936 27.1119 35.9839C27.9046 35.974 28.6953 35.9044 29.4776 35.7758C30.2601 35.6421 31.0184 35.3927 31.7275 35.0357C33.1505 34.3096 34.3074 33.1519 35.0325 31.7283C35.39 31.0194 35.6398 30.261 35.7734 29.4784C35.9025 28.6967 35.9721 27.9065 35.9815 27.1143C35.9912 26.7527 35.9952 26.3911 35.9976 26.0287V11.2618C35.9968 10.8319 35.9968 10.402 35.9968 9.9721ZM30.3816 29.3377C28.7744 26.2095 25.7828 26.9857 24.2496 27.7732C24.1114 27.8536 23.97 27.9339 23.8278 28.0143L23.794 28.0344C20.62 29.7218 16.3587 29.8456 12.0742 28.0038C8.58641 26.4915 5.63723 23.9603 3.61358 20.7421C4.59812 21.4706 5.65245 22.0996 6.7611 22.62C11.2899 24.7414 15.8413 24.5879 19.0555 22.62C14.4752 19.0964 10.6503 14.5041 7.71813 10.7901C7.15954 10.1384 6.65485 9.44239 6.20906 8.70891C9.72059 11.9231 15.2651 15.9586 17.2563 17.0755C13.032 12.6166 9.30997 7.11627 9.48434 7.29305C16.137 13.9963 22.2753 17.7867 22.2753 17.7867C22.5067 17.9136 22.6771 18.0157 22.8161 18.1081C22.9447 17.78 23.0563 17.4456 23.1504 17.106C24.2127 13.2225 23.017 8.78284 20.313 5.11703C26.4835 8.8198 30.1308 15.8581 28.6362 21.8109C28.6009 21.9499 28.5599 22.0841 28.5205 22.2199C31.6158 26.0287 30.7737 30.1083 30.3791 29.3385L30.3816 29.3377Z" fill="#0081B4"/>
</svg>
